<?xml version="1.0" encoding="UTF-8"?>
<!DOCTYPE svg PUBLIC "-//W3C//DTD SVG 1.1//EN" "http://www.w3.org/Graphics/SVG/1.1/DTD/svg11.dtd">
<!-- Creator: CorelDRAW (Versão OEM) -->
<svg xmlns="http://www.w3.org/2000/svg" xml:space="preserve" width="100%" height="100%" version="1.1" style="shape-rendering:geometricPrecision; text-rendering:geometricPrecision; image-rendering:optimizeQuality; fill-rule:evenodd; clip-rule:evenodd"
viewBox="0 0 67.0387 19.1451"
 xmlns:xlink="http://www.w3.org/1999/xlink"
 xmlns:xodm="http://www.corel.com/coreldraw/odm/2003">
 <defs>
  <style type="text/css">
   <![CDATA[
    .fil0 {fill:#2323FF}
    .fil1 {fill:#01314F;fill-rule:nonzero}
   ]]>
  </style>
 </defs>
 <g id="Camada_x0020_1">
  <metadata id="CorelCorpID_0Corel-Layer"/>
  <g id="_1912298307344">
   <g>
    <path class="fil0" d="M7.1726 16.587c-0.0066,0.0347 -0.018,0.0767 -0.0526,0.1346 -2.9997,-0.6775 -5.0452,-3.4467 -4.8353,-6.5074l0.0647 0.0152c-0.0038,-0.281 0.1058,-0.5482 0.1513,-0.9465 0.0515,-0.4518 0.222,-0.9039 0.4704,-1.2947l-0.1381 -0.0351c0.5838,-1.1741 1.0574,-1.9016 2.3408,-2.6879 0.9689,-0.5937 2.0987,-0.9246 3.2783,-0.9246 1.7133,0 3.3497,0.7004 4.5321,1.9348l0.939 -5.3585c0.1249,-0.7446 -0.0501,-0.8804 -0.7737,-0.9067 -0.5307,-0.0193 -1.3631,-0.0049 -2.5628,-0.0065l-4.2229 -0.0027c-0.9029,-0.0068 -0.7139,0.3356 -0.1855,0.845l1.3624 1.3137c-1.7197,0.199 -3.2899,0.9202 -4.5397,2.007 -1.8358,1.5588 -3.001,3.8831 -3.001,6.4801 0,3.1619 1.7273,5.9199 4.2896,7.3831l-2.5935 0c-0.3062,0 -0.5575,0.2509 -0.5575,0.5576 0,0.3067 0.2508,0.5576 0.5575,0.5576l6.8118 0c-0.0024,-0.0385 -0.0028,-0.0776 -0.0008,-0.1175 0.0146,-0.2854 0.0047,-0.6227 0.1378,-0.8973 -0.0093,-0.5105 -0.045,-0.9162 0.008,-1.265l-0.6424 -0.0614c-0.2636,0.0265 -0.5819,-0.079 -0.8379,-0.2169z"/>
    <path class="fil0" d="M15.7088 6.1503c-0.4346,-0.7148 -0.9755,-1.3646 -1.6068,-1.9255l-0.493 2.8153c0.18,0.2598 0.3418,0.5351 0.483,0.8247l0.0137 0.028 -0.0139 0.0067 -0.071 0 -0.0026 0 -0.1442 0.0672c-0.7963,0.1747 -1.8875,0.5085 -2.6099,0.5809 -1.0382,-0.0198 -1.7055,-0.6182 -2.812,-0.5634l0 0.0006c-1.1065,-0.0553 -1.7738,0.5485 -2.812,0.5684 -0.7224,-0.073 -1.8136,-0.4097 -2.6099,-0.586l-0.1779 -0.0577c-0.4197,0.9447 -0.5203,1.3822 -0.6235,2.3774l0.2622 0.0209c2.1172,0.4997 3.5725,1.9701 4.2274,3.9083 0.1927,0.5703 0.4772,1.848 0.3047,2.4031l-0.0206 0.0773c0.4844,0.1387 0.9573,0.197 1.4496,0.1633l0 2.2853 0.0568 0c1.5324,0 2.9695,-0.4079 4.2088,-1.1211 2.5558,-1.4652 4.2775,-4.2201 4.2775,-7.3772 0,-1.6513 -0.4715,-3.1923 -1.2864,-4.4965zm-5.8003 3.8l0.0011 0.0017 0.0161 0.0258c0.1572,0.2553 0.248,0.5558 0.248,0.8776 0,0.4075 -0.1455,0.7809 -0.3873,1.0714l-0.002 0.0025 -0.0195 0.0229c-0.31,0.3623 -0.7704,0.5922 -1.2847,0.5922 -0.9332,0 -1.6901,-0.7569 -1.6901,-1.6902 0,-0.9334 0.7569,-1.6901 1.6901,-1.6901 0.601,0 1.1286,0.3137 1.4283,0.7862zm0.0159 6.7601c2.7519,-0.645 4.8013,-3.1149 4.8013,-6.0636 0,-0.129 -0.0044,-0.2569 -0.0121,-0.3838l-0.3004 0.0238c-2.1172,0.4953 -3.5725,1.9529 -4.2274,3.8741 -0.1927,0.5652 -0.4772,1.8317 -0.3047,2.382 0.0224,0.0837 0.0144,0.0875 0.0433,0.1675z"/>
   </g>
   <circle class="fil0" cx="8.4874" cy="10.8499" r="1.1023"/>
  </g>
  <polygon class="fil1" points="38.9392,18.0847 38.9392,15.9462 40.307,15.9462 40.3085,16.2691 39.3213,16.2676 39.3228,16.9109 40.2125,16.9118 40.2125,17.2293 39.3213,17.2293 39.3228,18.0847 "/>
  <polygon id="_1" class="fil1" points="41.1603,15.9462 41.1618,18.0847 40.7782,18.0847 40.7782,15.9462 "/>
  <path id="_2" class="fil1" d="M41.7031 18.0847l0 -2.1385 0.4335 0 0.7393 1.1783c0.0309,0.049 0.0632,0.1038 0.0975,0.1656 0.0348,0.0617 0.0706,0.1308 0.1078,0.2067 0.0372,0.0764 0.074,0.1607 0.1107,0.2533l-0.0431 0c-0.0068,-0.0804 -0.0127,-0.1627 -0.0181,-0.2474 -0.0054,-0.0848 -0.0093,-0.1651 -0.0113,-0.2411 -0.0024,-0.0759 -0.0039,-0.1406 -0.0039,-0.193l0 -1.1224 0.389 0 0 2.1385 -0.4346 0 -0.6677 -1.0607c-0.0421,-0.0681 -0.0818,-0.1347 -0.1191,-0.2008 -0.0372,-0.0662 -0.0774,-0.1406 -0.1205,-0.2239 -0.0431,-0.0833 -0.095,-0.1837 -0.1563,-0.3013l0.0544 0c0.0059,0.1038 0.0108,0.2028 0.0157,0.2964 0.0049,0.0931 0.0088,0.1763 0.0122,0.2503 0.0035,0.0735 0.0049,0.1328 0.0049,0.1779l0 1.0621 -0.3904 0z"/>
  <path id="_3" class="fil1" d="M43.9027 18.0847l0.7467 -2.1385 0.4864 0 0.7638 2.1385 -0.4208 0 -0.3802 -1.1111c-0.0372,-0.1147 -0.0759,-0.2445 -0.1161,-0.3895 -0.0402,-0.145 -0.0848,-0.3096 -0.1337,-0.4943l0.0803 0c-0.0475,0.1866 -0.0911,0.3527 -0.1298,0.4987 -0.0387,0.146 -0.0755,0.2743 -0.1098,0.3851l-0.3674 1.1111 -0.4194 0zm0.4351 -0.5296l0 -0.3086 1.1268 0 0 0.3086 -1.1268 0z"/>
  <path id="_4" class="fil1" d="M46.2959 18.0847l0 -2.1385 0.4335 0 0.7393 1.1783c0.0309,0.049 0.0632,0.1038 0.0975,0.1656 0.0348,0.0617 0.0706,0.1308 0.1078,0.2067 0.0372,0.0764 0.074,0.1607 0.1107,0.2533l-0.0431 0c-0.0068,-0.0804 -0.0127,-0.1627 -0.0181,-0.2474 -0.0054,-0.0848 -0.0093,-0.1651 -0.0113,-0.2411 -0.0024,-0.0759 -0.0039,-0.1406 -0.0039,-0.193l0 -1.1224 0.389 0 0 2.1385 -0.4346 0 -0.6677 -1.0607c-0.0421,-0.0681 -0.0818,-0.1347 -0.1191,-0.2008 -0.0372,-0.0662 -0.0774,-0.1406 -0.1205,-0.2239 -0.0431,-0.0833 -0.095,-0.1837 -0.1563,-0.3013l0.0544 0c0.0059,0.1038 0.0108,0.2028 0.0157,0.2964 0.0049,0.0931 0.0088,0.1763 0.0122,0.2503 0.0035,0.0735 0.0049,0.1328 0.0049,0.1779l0 1.0621 -0.3904 0z"/>
  <path id="_5" class="fil1" d="M49.5508 18.1136c-0.1876,0 -0.3552,-0.0436 -0.5026,-0.1308 -0.147,-0.0872 -0.2636,-0.2126 -0.3484,-0.3763 -0.0852,-0.1636 -0.1278,-0.36 -0.1278,-0.5898 0,-0.2303 0.0426,-0.4277 0.1283,-0.5918 0.0857,-0.1642 0.2023,-0.2896 0.3503,-0.3768 0.148,-0.0872 0.3145,-0.1308 0.5002,-0.1308 0.1166,0 0.2259,0.0167 0.3278,0.0495 0.1019,0.0333 0.193,0.0813 0.2728,0.145 0.0799,0.0637 0.1456,0.1416 0.1975,0.2332 0.0514,0.0921 0.0857,0.1965 0.1034,0.3131l-0.3861 0c-0.0127,-0.0642 -0.0338,-0.1206 -0.0642,-0.1695 -0.0299,-0.0486 -0.0676,-0.0902 -0.1127,-0.124 -0.045,-0.0343 -0.0955,-0.0598 -0.1518,-0.0774 -0.0569,-0.0181 -0.1171,-0.0269 -0.1808,-0.0269 -0.1171,0 -0.2205,0.0293 -0.3111,0.0886 -0.0902,0.0588 -0.1612,0.1441 -0.2121,0.2567 -0.0515,0.1122 -0.077,0.2494 -0.077,0.4111 0,0.1636 0.026,0.3018 0.0774,0.4135 0.052,0.1122 0.123,0.1964 0.2132,0.2542 0.0906,0.0574 0.193,0.0858 0.3081,0.0858 0.0637,0 0.1245,-0.0088 0.1808,-0.0265 0.0563,-0.0176 0.1073,-0.0436 0.1529,-0.0774 0.0455,-0.0338 0.0832,-0.0754 0.1141,-0.1249 0.0304,-0.049 0.0514,-0.1053 0.0632,-0.1685l0.3875 0c-0.0147,0.1023 -0.046,0.1984 -0.094,0.2875 -0.0485,0.0897 -0.1117,0.1686 -0.1901,0.2362 -0.0789,0.0681 -0.17,0.121 -0.2739,0.1592 -0.1039,0.0387 -0.2185,0.0578 -0.3449,0.0578z"/>
  <polygon id="_6" class="fil1" points="51.2982,15.9462 51.2997,18.0847 50.9161,18.0847 50.9161,15.9462 "/>
  <path id="_7" class="fil1" d="M51.6974 18.0847l0.7467 -2.1385 0.4864 0 0.7638 2.1385 -0.4208 0 -0.3802 -1.1111c-0.0372,-0.1147 -0.0759,-0.2445 -0.1161,-0.3895 -0.0402,-0.145 -0.0848,-0.3096 -0.1337,-0.4943l0.0803 0c-0.0475,0.1866 -0.0911,0.3527 -0.1298,0.4987 -0.0387,0.146 -0.0755,0.2743 -0.1098,0.3851l-0.3674 1.1111 -0.4194 0zm0.4351 -0.5296l0 -0.3086 1.1268 0 0 0.3086 -1.1268 0z"/>
  <path id="_8" class="fil1" d="M54.0906 18.0847l0 -2.1385 0.5771 0 0.4061 1.1038c0.0147,0.0411 0.0304,0.0941 0.048,0.1582 0.0182,0.0647 0.0363,0.1343 0.0549,0.2092 0.0186,0.0745 0.0363,0.1475 0.0529,0.2185 0.0167,0.0716 0.0309,0.1343 0.0427,0.1891l-0.0779 0c0.0117,-0.0538 0.0259,-0.1156 0.0426,-0.1861 0.0166,-0.0701 0.0343,-0.1431 0.0529,-0.218 0.0186,-0.075 0.0367,-0.1451 0.0549,-0.2102 0.0176,-0.0652 0.0328,-0.1186 0.0465,-0.1607l0.4017 -1.1038 0.5786 0 0 2.1385 -0.3821 0 0 -1.0793c0,-0.046 0.0005,-0.1014 0.0015,-0.1666 0.0009,-0.0651 0.0024,-0.1347 0.0044,-0.2096 0.0019,-0.0745 0.0039,-0.15 0.0058,-0.2259 0.002,-0.0759 0.003,-0.1484 0.003,-0.2175l0.0269 0c-0.0191,0.0754 -0.0396,0.1528 -0.0622,0.2317 -0.0225,0.0789 -0.0446,0.1558 -0.0666,0.2298 -0.0221,0.074 -0.0431,0.1421 -0.0627,0.2043 -0.0196,0.0622 -0.0363,0.1136 -0.051,0.1538l-0.3944 1.0793 -0.3258 0 -0.4007 -1.0793c-0.0142,-0.0402 -0.0314,-0.0906 -0.051,-0.1514 -0.0196,-0.0607 -0.0406,-0.1278 -0.0632,-0.2018 -0.0225,-0.0735 -0.045,-0.1504 -0.0671,-0.2303 -0.0225,-0.0798 -0.045,-0.1587 -0.0671,-0.2361l0.0319 0c0.0009,0.0642 0.0024,0.1337 0.0044,0.2087 0.0019,0.0754 0.0034,0.1504 0.0049,0.2263 0.0014,0.0755 0.0029,0.1465 0.0044,0.2131 0.0014,0.0667 0.0019,0.1235 0.0019,0.1715l0 1.0793 -0.3762 0z"/>
  <polygon id="_9" class="fil1" points="56.9129,18.0847 56.9129,15.9462 58.3008,15.9462 58.3023,16.2691 57.295,16.2676 57.2965,16.8462 58.2263,16.8462 58.2278,17.1646 57.295,17.1632 57.2965,17.7618 58.3067,17.7633 58.3082,18.0847 "/>
  <path id="_10" class="fil1" d="M58.8039 18.0847l0 -2.1385 0.4335 0 0.7393 1.1783c0.0309,0.049 0.0632,0.1038 0.0975,0.1656 0.0348,0.0617 0.0706,0.1308 0.1078,0.2067 0.0372,0.0764 0.074,0.1607 0.1107,0.2533l-0.0431 0c-0.0068,-0.0804 -0.0127,-0.1627 -0.0181,-0.2474 -0.0054,-0.0848 -0.0093,-0.1651 -0.0113,-0.2411 -0.0024,-0.0759 -0.0039,-0.1406 -0.0039,-0.193l0 -1.1224 0.389 0 0 2.1385 -0.4346 0 -0.6677 -1.0607c-0.0421,-0.0681 -0.0818,-0.1347 -0.1191,-0.2008 -0.0372,-0.0662 -0.0774,-0.1406 -0.1205,-0.2239 -0.0431,-0.0833 -0.095,-0.1837 -0.1563,-0.3013l0.0544 0c0.0059,0.1038 0.0108,0.2028 0.0157,0.2964 0.0049,0.0931 0.0088,0.1763 0.0122,0.2503 0.0035,0.0735 0.0049,0.1328 0.0049,0.1779l0 1.0621 -0.3904 0z"/>
  <polygon id="_11" class="fil1" points="61.051,16.2676 61.051,15.9462 62.7535,15.9462 62.7535,16.2691 62.0946,16.2676 62.0946,18.0847 61.7129,18.0847 61.7115,16.2691 "/>
  <path id="_12" class="fil1" d="M64.0228 18.1136c-0.1876,0 -0.3557,-0.0436 -0.5041,-0.1308 -0.148,-0.0872 -0.2651,-0.2126 -0.3508,-0.3763 -0.0857,-0.1636 -0.1283,-0.36 -0.1283,-0.5898 0,-0.2303 0.0426,-0.4277 0.1283,-0.5918 0.0857,-0.1642 0.2028,-0.2896 0.3508,-0.3768 0.1484,-0.0872 0.3165,-0.1308 0.5041,-0.1308 0.1862,0 0.3537,0.0436 0.5017,0.1308 0.1475,0.0872 0.2645,0.2126 0.3498,0.3768 0.0857,0.1641 0.1288,0.3615 0.1288,0.5918 0,0.2298 -0.0431,0.4267 -0.1288,0.5908 -0.0853,0.1641 -0.2023,0.2896 -0.3498,0.3758 -0.148,0.0867 -0.3155,0.1303 -0.5017,0.1303zm0 -0.3434c0.1156,0 0.218,-0.0289 0.3077,-0.0867 0.0896,-0.0579 0.1597,-0.1431 0.2102,-0.2553 0.0509,-0.1127 0.0759,-0.2498 0.0759,-0.4115 0,-0.1637 -0.025,-0.3013 -0.0759,-0.414 -0.0505,-0.1122 -0.1206,-0.1974 -0.2102,-0.2552 -0.0897,-0.0583 -0.1921,-0.0872 -0.3077,-0.0872 -0.1171,0 -0.2204,0.0293 -0.3101,0.0876 -0.0901,0.0583 -0.1607,0.1441 -0.2116,0.2563 -0.0515,0.1127 -0.077,0.2498 -0.077,0.4125 0,0.1617 0.0255,0.2988 0.077,0.4105 0.0509,0.1122 0.1215,0.1975 0.2116,0.2558 0.0897,0.0583 0.193,0.0872 0.3101,0.0872z"/>
  <path id="_13" class="fil1" d="M66.2278 18.1175c-0.1656,0 -0.3096,-0.0255 -0.4316,-0.0774 -0.122,-0.0514 -0.2175,-0.1269 -0.2861,-0.2253 -0.0691,-0.0985 -0.1063,-0.2181 -0.1122,-0.3587l0.3777 0c0.0069,0.0745 0.0299,0.1367 0.0701,0.1867 0.0402,0.0495 0.0936,0.0867 0.1597,0.1112 0.0656,0.0245 0.1391,0.0363 0.2195,0.0363 0.0842,0 0.1587,-0.0128 0.2229,-0.0387 0.0647,-0.0255 0.1151,-0.0618 0.1514,-0.1083 0.0367,-0.0466 0.0548,-0.1 0.0548,-0.1612 0,-0.0558 -0.0161,-0.1019 -0.048,-0.1382 -0.0323,-0.0362 -0.0774,-0.0671 -0.1352,-0.0925 -0.0578,-0.025 -0.1254,-0.0476 -0.2028,-0.0667l-0.2425 -0.0632c-0.1793,-0.046 -0.3185,-0.1151 -0.4184,-0.2082 -0.1004,-0.0926 -0.1504,-0.2146 -0.1504,-0.366 0,-0.1264 0.0343,-0.2366 0.1019,-0.3311 0.0681,-0.0951 0.1612,-0.1686 0.2788,-0.2205 0.1175,-0.0524 0.2513,-0.0784 0.4002,-0.0784 0.1524,0 0.2856,0.0265 0.4008,0.0789 0.1146,0.0529 0.2043,0.1254 0.2689,0.2185 0.0647,0.0926 0.0985,0.1984 0.101,0.317l-0.3714 0c-0.0098,-0.0917 -0.0505,-0.1627 -0.123,-0.2131 -0.072,-0.0505 -0.1661,-0.0755 -0.2822,-0.0755 -0.0803,0 -0.1494,0.0123 -0.2072,0.0367 -0.0578,0.0245 -0.1024,0.0579 -0.1333,0.1 -0.0313,0.0416 -0.047,0.0901 -0.047,0.1445 0,0.0598 0.0186,0.1083 0.0554,0.1465 0.0367,0.0382 0.0833,0.0691 0.1391,0.0921 0.0563,0.023 0.1127,0.0416 0.1705,0.0559l0.1994 0.0514c0.0794,0.0196 0.1563,0.0446 0.2312,0.0764 0.0745,0.0314 0.1416,0.0716 0.2014,0.1196 0.0598,0.0485 0.1073,0.1073 0.143,0.1758 0.0353,0.0691 0.053,0.15 0.053,0.2426 0,0.1254 -0.0319,0.2356 -0.0961,0.3311 -0.0641,0.0951 -0.1567,0.1691 -0.2773,0.2225 -0.1205,0.0529 -0.266,0.0793 -0.436,0.0793z"/>
  <path class="fil1" d="M62.7592 15.0648c-0.487,0 -0.9245,-0.0847 -1.3127,-0.2565 -0.3882,-0.1741 -0.6941,-0.4305 -0.9176,-0.774 -0.2211,-0.3411 -0.334,-0.7669 -0.334,-1.2775 0,-0.4281 0.08,-0.7857 0.2376,-1.0751 0.16,-0.2894 0.3741,-0.5223 0.6493,-0.6964 0.2729,-0.1741 0.5835,-0.3082 0.9293,-0.3999 0.3482,-0.0918 0.7105,-0.1553 1.094,-0.193 0.4446,-0.0447 0.8046,-0.087 1.0775,-0.127 0.2729,-0.04 0.4729,-0.1012 0.5999,-0.1859 0.1271,-0.0847 0.1882,-0.2117 0.1882,-0.3764l0 -0.0329c0,-0.2212 -0.0447,-0.407 -0.1364,-0.5599 -0.0918,-0.1506 -0.2282,-0.2682 -0.4094,-0.3482 -0.1835,-0.08 -0.4023,-0.12 -0.6587,-0.12 -0.2659,0 -0.4988,0.04 -0.6964,0.12 -0.1976,0.08 -0.3576,0.1882 -0.4823,0.3199 -0.1247,0.1341 -0.2164,0.2847 -0.2753,0.4494l-1.8962 -0.3106c0.1341,-0.4493 0.3529,-0.8305 0.6611,-1.1434 0.3082,-0.3129 0.6917,-0.5528 1.1481,-0.7175 0.4564,-0.1647 0.974,-0.247 1.548,-0.247 0.4141,0 0.814,0.0494 1.2046,0.1482 0.3905,0.0988 0.7411,0.2517 1.0516,0.4564 0.3106,0.207 0.5576,0.4776 0.7387,0.8117 0.1812,0.3317 0.2706,0.7316 0.2706,1.1951l0 5.1899 -1.9574 0 0 -1.0681 -0.0682 0c-0.1247,0.2376 -0.2894,0.4494 -0.4964,0.6305 -0.2071,0.1812 -0.4564,0.3247 -0.7482,0.4305 -0.2917,0.1059 -0.6281,0.1577 -1.0093,0.1577zm0.5858 -1.454c0.3271,0 0.6117,-0.0635 0.8588,-0.1929 0.2446,-0.127 0.4376,-0.3035 0.574,-0.5223 0.1388,-0.2211 0.207,-0.4681 0.207,-0.7387l0 -0.8328c-0.0588,0.0447 -0.1505,0.087 -0.2752,0.1223 -0.1247,0.0377 -0.2612,0.0706 -0.4141,0.0965 -0.1506,0.0282 -0.3011,0.0541 -0.447,0.0776 -0.1482,0.0212 -0.2776,0.04 -0.3929,0.0541 -0.2517,0.0377 -0.4752,0.0965 -0.6681,0.1788 -0.1929,0.0824 -0.3435,0.1929 -0.4494,0.327 -0.1058,0.1365 -0.1576,0.3106 -0.1576,0.5223 0,0.1976 0.0494,0.3623 0.1506,0.4988 0.1011,0.1364 0.2399,0.2376 0.414,0.3058 0.1741,0.0706 0.3741,0.1035 0.5999,0.1035z"/>
  <polygon class="fil1" points="52.4688,14.9142 52.4688,13.6602 56.266,8.9315 56.273,8.8773 52.5841,8.8773 52.5912,7.2093 58.7668,7.2093 58.7668,8.5809 55.1838,13.1921 55.1838,13.2462 58.8986,13.2462 58.8986,14.9142 "/>
  <path class="fil1" d="M49.7303 6.2024c-0.3105,0 -0.5787,-0.1059 -0.8022,-0.3129 -0.2235,-0.2094 -0.3341,-0.4588 -0.3341,-0.7481 0.0047,-0.2941 0.1177,-0.5458 0.3388,-0.7529 0.2188,-0.207 0.487,-0.3082 0.7975,-0.3082 0.3129,0.0024 0.5811,0.1082 0.7999,0.3129 0.2212,0.2047 0.3318,0.4541 0.3318,0.7482 0.0047,0.294 -0.1059,0.5434 -0.3271,0.7505 -0.2235,0.207 -0.4917,0.3105 -0.8046,0.3105z"/>
  <polygon class="fil1" points="48.6975,14.9142 48.6975,7.2093 50.7584,7.2093 50.7655,14.9142 "/>
  <polygon class="fil1" points="46.933,4.0803 46.9401,14.9142 44.8721,14.9142 44.8721,4.0803 "/>
  <polygon class="fil1" points="43.1076,4.0803 43.1147,14.9142 41.0467,14.9142 41.0467,4.0803 "/>
  <path class="fil1" d="M38.2541 6.2024c-0.3105,0 -0.5787,-0.1059 -0.8022,-0.3129 -0.2235,-0.2094 -0.3341,-0.4588 -0.3341,-0.7481 0.0047,-0.2941 0.1177,-0.5458 0.3388,-0.7529 0.2188,-0.207 0.487,-0.3082 0.7975,-0.3082 0.3129,0.0024 0.5811,0.1082 0.7999,0.3129 0.2212,0.2047 0.3318,0.4541 0.3318,0.7482 0.0047,0.294 -0.1059,0.5434 -0.3271,0.7505 -0.2235,0.207 -0.4917,0.3105 -0.8046,0.3105z"/>
  <polygon class="fil1" points="37.2213,14.9142 37.2213,7.2093 39.2822,7.2093 39.2893,14.9142 "/>
  <path class="fil1" d="M31.728 17.9609c-0.6423,0 -1.2046,-0.0824 -1.6822,-0.2447 -0.4775,-0.1623 -0.8657,-0.3882 -1.1645,-0.6729 -0.2988,-0.2846 -0.5058,-0.6093 -0.6211,-0.9716l1.7786 -0.4964c0.0659,0.1435 0.1647,0.2823 0.3011,0.4164 0.1341,0.1365 0.3153,0.247 0.5411,0.3364 0.2235,0.0871 0.5035,0.1294 0.8329,0.1294 0.5293,0 0.9434,-0.12 1.2445,-0.3623 0.3011,-0.2399 0.4517,-0.6164 0.4517,-1.1269l0 -1.4186 -0.1576 0c-0.0941,0.207 -0.2259,0.407 -0.4,0.5999 -0.1764,0.1929 -0.4046,0.3505 -0.6869,0.4705 -0.2824,0.1224 -0.6329,0.1835 -1.0517,0.1835 -0.5787,0 -1.1034,-0.1341 -1.5786,-0.407 -0.4729,-0.2705 -0.8493,-0.6846 -1.134,-1.2398 -0.2823,-0.5552 -0.4234,-1.2587 -0.4234,-2.1103 0,-0.8682 0.1435,-1.5928 0.4305,-2.1762 0.287,-0.5835 0.6705,-1.0234 1.1457,-1.3175 0.4753,-0.2941 0.9976,-0.4399 1.5669,-0.4399 0.4329,0 0.7952,0.0705 1.0893,0.2164 0.294,0.1435 0.5317,0.327 0.7128,0.5435 0.1835,0.2188 0.32,0.4281 0.4117,0.6305l0.0894 0 0 -1.294 2.0327 0 0 7.6437c0,0.6941 -0.16,1.2705 -0.4799,1.7292 -0.3176,0.4588 -0.7576,0.8046 -1.3199,1.0328 -0.5599,0.2306 -1.2022,0.3459 -1.9291,0.3459zm0.0353 -4.7288c0.3529,0 0.654,-0.0871 0.8987,-0.2612 0.247,-0.1741 0.4329,-0.4258 0.5622,-0.7552 0.1271,-0.3293 0.193,-0.7222 0.193,-1.181 0,-0.4564 -0.0659,-0.854 -0.193,-1.1928 -0.1293,-0.3411 -0.3152,-0.6046 -0.5622,-0.7928 -0.2447,-0.1882 -0.5458,-0.2823 -0.8987,-0.2823 -0.3647,0 -0.6682,0.0964 -0.9129,0.2917 -0.247,0.1953 -0.4328,0.4635 -0.5599,0.8046 -0.1247,0.3388 -0.1882,0.7293 -0.1882,1.1716 0,0.4494 0.0635,0.8399 0.1882,1.1669 0.1271,0.3294 0.3153,0.5835 0.5623,0.7623 0.247,0.1788 0.5505,0.2682 0.9105,0.2682z"/>
  <polygon class="fil1" points="19.7343,12.5286 19.7343,10.8818 25.2136,10.8818 25.2136,12.5286 "/>
  <path class="fil1" d="M17.544 14.9142l3.5078 -10.2692 2.7572 0 3.5972 10.2692 -2.3361 0 -1.6469 -4.9546c-0.1976,-0.64 -0.3999,-1.3387 -0.6046,-2.1009 -0.2047,-0.7599 -0.4188,-1.5904 -0.6446,-2.4915l0.4634 0c-0.2211,0.9058 -0.4281,1.741 -0.6187,2.5056 -0.1906,0.7669 -0.3788,1.461 -0.567,2.0868l-1.5857 4.9546 -2.322 0z"/>
 </g>
</svg>
